<svg xmlns="http://www.w3.org/2000/svg" xmlns:svg="http://www.w3.org/2000/svg" xmlns:xlink="http://www.w3.org/1999/xlink" id="svg2" width="200" height="200" version="1.1"><defs id="defs4"><linearGradient id="linearGradient1132"><stop id="stop1128" offset="0" style="stop-color:#000;stop-opacity:1"/><stop id="stop1130" offset="1" style="stop-color:#fff;stop-opacity:1"/></linearGradient><linearGradient id="linearGradient1112"><stop id="stop1108" offset="0" style="stop-color:#4e71a7;stop-opacity:1"/><stop id="stop1110" offset="1" style="stop-color:#003380;stop-opacity:1"/></linearGradient><linearGradient id="linearGradient1098"><stop id="stop1094" offset="0" style="stop-color:#8fa5c7;stop-opacity:1"/><stop id="stop1096" offset="1" style="stop-color:#6b89b5;stop-opacity:1"/></linearGradient><radialGradient id="radialGradient1104" cx="100" cy="902.414" r="50.176" fx="100" fy="902.414" gradientTransform="matrix(1,0,0,1.0008662,0,-0.83350425)" gradientUnits="userSpaceOnUse" xlink:href="#linearGradient1098"/><radialGradient id="radialGradient1114" cx="100" cy="915.589" r="81.718" fx="100" fy="915.589" gradientTransform="matrix(1.2237143,-4.3989457e-7,4.3989466e-7,1.2237146,-22.37184,-208.05727)" gradientUnits="userSpaceOnUse" xlink:href="#linearGradient1112"/><clipPath id="clipPath1122" clipPathUnits="userSpaceOnUse"><path style="fill:url(#radialGradient1126);fill-opacity:1;stroke-width:1" id="path1124" d="m 115.91973,1032.1641 c 26.62373,-1.9874 45.00106,-8.1125 55.46713,-18.4868 10.23109,-10.1415 12.79538,-23.34093 8.13483,-41.87323 -3.13288,-12.4577 -10.54871,-28.233 -23.96253,-50.9743 -9.53936,-16.17262 -15.92454,-24.94367 -24.13034,-33.14679 -8.53144,-8.52864 -15.86137,-12.98128 -24.22706,-14.71699 -3.62842,-0.75282 -10.018612,-0.81053 -13.641892,-0.12321 -12.96872,2.46013 -25.58865,12.7085 -38.48677,31.25428 -9.07139,13.04351 -23.10087,38.03451 -28.76497,51.23971 -1.1045,2.575 -2.856,7.2367 -3.89221,10.3593 -8.182,24.6564 -4.12685,41.85593 12.49107,52.97993 10.5549,7.0654 23.97047,10.9739 45.33364,13.2077 4.34135,0.454 30.590392,0.6602 35.679102,0.2804 z"/></clipPath><radialGradient id="radialGradient1126" cx="100" cy="931.933" r="81.718" fx="100" fy="931.933" gradientTransform="matrix(-1,0,0,0.97897152,200.04345,20.02673)" gradientUnits="userSpaceOnUse" xlink:href="#linearGradient1112"/><linearGradient id="linearGradient1134" x1="120" x2="120" y1="1012.362" y2="882.362" gradientUnits="userSpaceOnUse" xlink:href="#linearGradient1132"/><filter id="filter1136" width="1.047" height="1.049" x="-.024" y="-.024" style="color-interpolation-filters:sRGB"><feGaussianBlur id="feGaussianBlur1138" stdDeviation="1.617"/></filter><filter id="filter1144" width="1.047" height="1.049" x="-.024" y="-.024" style="color-interpolation-filters:sRGB"><feGaussianBlur id="feGaussianBlur1146" stdDeviation="1.617"/></filter></defs><metadata id="metadata7"/><g id="layer1" transform="matrix(1.0229105,0,0,1.0229105,-2.314973,-875.38218)" style="stroke-width:.97760266"><g style="stroke-width:.90838438" id="g1209" transform="matrix(1.0763895,0,0,1.0760092,-7.6389452,-71.214319)"><path style="fill:url(#radialGradient1114);fill-opacity:1;stroke-width:.90838438" id="path1009" d="m 84.123715,1032.1641 c -26.623728,-1.9874 -45.001059,-8.1125 -55.467129,-18.4868 -10.23109,-10.1415 -12.79538,-23.34093 -8.13483,-41.87323 3.13288,-12.4577 10.54871,-28.233 23.96253,-50.9743 9.53936,-16.17262 15.924539,-24.94367 24.130346,-33.14679 8.531438,-8.52864 15.861367,-12.98128 24.227054,-14.71699 3.62842,-0.75282 10.018614,-0.81053 13.641894,-0.12321 12.96872,2.46013 25.58865,12.7085 38.48677,31.25428 9.07139,13.04351 23.10087,38.03451 28.76497,51.23971 1.1045,2.575 2.856,7.2367 3.89221,10.3593 8.182,24.6564 4.12685,41.85593 -12.49107,52.97993 -10.5549,7.0654 -23.97047,10.9739 -45.33364,13.2077 -4.34135,0.454 -30.59039,0.6602 -35.679105,0.2804 z"/><path id="path1116" d="m 115.91973,1032.1641 c 26.62373,-1.9874 45.00106,-8.1125 55.46713,-18.4868 10.23109,-10.1415 12.79538,-23.34093 8.13483,-41.87323 -3.13288,-12.4577 -10.54871,-28.233 -23.96253,-50.9743 -9.53936,-16.17262 -15.92454,-24.94367 -24.13034,-33.14679 -8.53144,-8.52864 -15.86137,-12.98128 -24.22706,-14.71699 -3.62842,-0.75282 -10.018612,-0.81053 -13.641892,-0.12321 -12.96872,2.46013 -25.58865,12.7085 -38.48677,31.25428 -9.07139,13.04351 -23.10087,38.03451 -28.76497,51.23971 -1.1045,2.575 -2.856,7.2367 -3.89221,10.3593 -8.182,24.6564 -4.12685,41.85593 12.49107,52.97993 10.5549,7.0654 23.97047,10.9739 45.33364,13.2077 4.34135,0.454 30.590392,0.6602 35.679102,0.2804 z" clip-path="url(#clipPath1122)" style="opacity:.2;fill:none;fill-opacity:1;stroke:url(#linearGradient1134);stroke-width:5.45030594;stroke-miterlimit:4;stroke-dasharray:none;stroke-opacity:1;filter:url(#filter1136)"/><path id="path1011" d="m 106.40297,1012.1402 c 1.93419,-0.2301 3.03734,-0.5154 3.29874,-0.8531 0.69233,-0.8943 3.56408,-7.9864 5.41215,-13.36593 8.40985,-24.48 9.40491,-50.0429 2.93089,-75.2938 -1.82738,-7.1274 -2.18236,-8.1123 -2.96617,-8.2301 -0.55671,-0.084 -0.70849,0.3307 -1.36041,3.7133 -1.09049,5.658 -3.40242,14.9048 -5.25333,21.0111 -7.84919,25.895 -19.014248,46.957 -32.952847,62.16273 -3.045445,3.3223 -3.224719,2.8258 1.992522,5.5182 5.231909,2.7 12.098032,4.8476 17.435942,5.4537 2.431923,0.2761 8.700653,0.2126 11.462513,-0.1161 z m 38.73187,-27.25923 c 9.49361,-18.9439 6.21668,-41.7104 -8.16717,-56.7414 -2.82669,-2.9538 -7.72229,-7.2154 -7.98601,-6.9517 -0.0584,0.058 0.76332,2.3534 1.82607,5.1 5.26242,13.6002 8.94987,27.5463 10.70861,40.5004 0.57675,4.2481 0.70507,6.7849 0.71504,14.1356 0.014,10.3357 -0.16848,10.087 2.90346,3.9571 z m -87.115143,-13.6876 c 8.02064,-5.3446 13.518723,-9.8501 20.310277,-16.6438 9.953382,-9.9565 16.875648,-19.4758 22.905876,-31.4998 2.00648,-4.0008 4.76552,-10.3591 4.57692,-10.5477 -0.0712,-0.071 -0.85331,-0.2152 -1.73803,-0.32 l -1.6086,-0.1905 -3.682117,2.8945 c -11.438766,8.9921 -25.914185,17.4124 -38.46002,22.3721 l -4.426441,1.7499 -1.136136,2.4854 c -3.51395,7.6873 -5.16925,16.8794 -4.41838,24.5359 0.41221,4.2032 1.30082,9.0035 1.66669,9.0035 0.13633,0 2.84082,-1.7278 6.009961,-3.8395 z" style="fill:url(#radialGradient1104);fill-opacity:1;stroke-width:.90838438"/></g></g></svg>