<svg xmlns="http://www.w3.org/2000/svg" xmlns:svg="http://www.w3.org/2000/svg" id="svg2424" width="200" height="200" version="1.0"><metadata id="metadata2429"/><g id="layer1" transform="matrix(1.083114,0,0,1.083114,-47.394765,-148.27067)" style="stroke-width:.92326385"><g id="g2424" transform="matrix(0.8746356,0,0,0.8746356,14.730518,23.408954)" style="stroke-width:.92326385"><g id="g3101" transform="translate(-0.56099638,1.9415748)" style="stroke-width:.92326385"><path style="fill:#1793d1;fill-opacity:1;fill-rule:evenodd;stroke:none;stroke-width:.92326385" id="path2518" d="m 139.32579,138.36443 c -8.45709,20.73453 -13.558,34.29734 -22.97386,54.41552 5.7731,6.11948 12.85931,13.24593 24.36729,21.29458 -12.3722,-5.09109 -20.81156,-10.20242 -27.11843,-15.50646 -12.05051,25.14523 -30.93018,60.96349 -69.243123,129.80406 30.112687,-17.38458 53.455506,-28.10236 75.209893,-32.19198 -0.93414,-4.01773 -1.46524,-8.36369 -1.42917,-12.89823 l 0.0357,-0.96469 c 0.47782,-19.2924 10.51371,-34.12825 22.40219,-33.12093 11.88848,1.00732 21.12927,17.4729 20.65145,36.76531 -0.0899,3.63022 -0.49933,7.12245 -1.21479,10.36146 21.5182,4.20934 44.61142,14.89968 74.31667,32.04906 -5.8573,-10.78369 -11.08544,-20.5044 -16.07813,-29.7624 -7.86429,-6.09535 -16.06713,-14.02847 -32.79937,-22.61656 11.50078,2.98839 19.73519,6.43619 26.15375,10.29 -50.76203,-94.51003 -54.87267,-107.06846 -72.2801,-147.91874 z"/><text id="text2638" x="233.128" y="311.413" xml:space="preserve" style="font-style:normal;font-weight:400;font-size:8.25130367px;font-family:'DejaVu Sans Mono';fill:#87cdde;fill-opacity:1;stroke:none;stroke-width:.92326385"><tspan id="tspan2640" x="233.128" y="311.413" style="stroke-width:.92326385">TM</tspan></text></g></g></g></svg>