<svg xmlns="http://www.w3.org/2000/svg" xmlns:svg="http://www.w3.org/2000/svg" id="svg3642" width="200" height="200" version="1.0"><metadata id="metadata3079"/><g id="layer1" transform="matrix(0.48263532,0,0,0.48263532,96.832021,-93.785321)"><g id="g15041" transform="matrix(1.293235,0,0,1.293235,-4878.321,-1224.915)"><g style="fill:#000;fill-opacity:1;fill-rule:nonzero;stroke:none" id="g15043" transform="matrix(2.438586,0,0,2.438586,3659.952,1113.451)"><g style="fill:#000;fill-opacity:1" id="g15045"><path style="fill:#000;fill-opacity:1" id="path15047" d="M 86.068,0 C 61.466,0 56.851,35.041 70.691,35.041 84.529,35.041 110.671,0 86.068,0 Z"/><path style="fill:#000;fill-opacity:1" id="path15049" d="M 45.217,30.699 C 52.586,31.149 60.671,2.577 46.821,4.374 32.976,6.171 37.845,30.249 45.217,30.699 Z"/><path style="fill:#000;fill-opacity:1" id="path15051" d="M 11.445,48.453 C 16.686,46.146 12.12,23.581 3.208,29.735 -5.7,35.89 6.204,50.759 11.445,48.453 Z"/><path style="fill:#000;fill-opacity:1" id="path15053" d="M 26.212,36.642 C 32.451,35.37 32.793,9.778 21.667,14.369 10.539,18.961 19.978,37.916 26.212,36.642 Z"/><path style="fill:#000;fill-opacity:1" id="path15055" d="m 58.791,93.913 c 1.107,8.454 -6.202,12.629 -13.36,7.179 C 22.644,83.743 83.16,75.088 79.171,51.386 75.86,31.712 15.495,37.769 8.621,68.553 3.968,89.374 27.774,118.26 52.614,118.26 c 12.22,0 26.315,-11.034 28.952,-25.012 C 83.58,82.589 57.867,86.86 58.791,93.913 Z"/></g></g></g></g></svg>