<svg xmlns="http://www.w3.org/2000/svg" xmlns:svg="http://www.w3.org/2000/svg" id="svg8" width="200" height="200" x="0" y="0" enable-background="new 0 0 23 23" version="1.1" viewBox="0 0 200 200" xml:space="preserve"><metadata id="metadata14"/><path style="fill:#dc682e;stroke-width:7.21739101" id="XMLID_9_" d="M 100 10 C 50.296521 10 10 50.296521 10 100 C 10 149.7113 50.296521 190 100 190 C 149.7113 190 190 149.7113 190 100 C 190 50.296521 149.7113 10 100 10 z M 100 25.339844 C 141.23565 25.339844 174.66016 58.764347 174.66016 100 C 174.66016 106.35341 173.86103 112.51885 172.36719 118.4082 L 136.79102 78.869141 L 91.390625 130.52148 L 113.30469 86.695312 L 102.34766 67.130859 L 37.8125 141.30859 C 29.936946 129.47676 25.339844 115.27672 25.339844 100 C 25.339844 58.764347 58.764348 25.339844 100 25.339844 z"/></svg>