<svg xmlns="http://www.w3.org/2000/svg" xmlns:svg="http://www.w3.org/2000/svg" id="svg8" width="200" height="200" x="0" y="0" enable-background="new 0 0 23 23" version="1.1" viewBox="0 0 200 200" xml:space="preserve"><metadata id="metadata14"/><path style="color:#000;font-style:normal;font-variant:normal;font-weight:400;font-stretch:normal;font-size:medium;line-height:normal;font-family:sans-serif;font-variant-ligatures:normal;font-variant-position:normal;font-variant-caps:normal;font-variant-numeric:normal;font-variant-alternates:normal;font-feature-settings:normal;text-indent:0;text-align:start;text-decoration:none;text-decoration-line:none;text-decoration-style:solid;text-decoration-color:#000;letter-spacing:normal;word-spacing:normal;text-transform:none;writing-mode:lr-tb;direction:ltr;text-orientation:mixed;dominant-baseline:auto;baseline-shift:baseline;text-anchor:start;white-space:normal;shape-padding:0;clip-rule:nonzero;display:inline;overflow:visible;visibility:visible;opacity:.1;isolation:auto;mix-blend-mode:normal;color-interpolation:sRGB;color-interpolation-filters:linearRGB;solid-color:#000;solid-opacity:1;vector-effect:none;fill:#000;fill-opacity:1;fill-rule:nonzero;stroke:none;stroke-width:10;stroke-linecap:butt;stroke-linejoin:round;stroke-miterlimit:4;stroke-dasharray:none;stroke-dashoffset:1;stroke-opacity:1;color-rendering:auto;image-rendering:auto;shape-rendering:auto;text-rendering:auto;enable-background:accumulate" id="path890" d="M 100 20 C 55.876443 20 20 55.876443 20 100 C 20 144.12356 55.876443 180 100 180 C 144.12356 180 180 144.12356 180 100 C 180 55.876443 144.12356 20 100 20 z M 100 30 C 138.71916 30 170 61.280844 170 100 C 170 138.71916 138.71916 170 100 170 C 61.280844 170 30 138.71916 30 100 C 30 61.280844 61.280844 30 100 30 z M 100.41016 50 C 81.216171 50 71.380272 61.747854 70.628906 76.501953 L 82.308594 76.501953 C 83.05996 66.734193 89.617433 60.65625 99.931641 60.65625 C 110.10924 60.65625 116.66602 66.871851 116.66602 75.341797 C 116.66602 82.650541 113.59342 86.953007 105.66992 91.802734 C 96.311996 97.403827 91.939506 103.55197 92.007812 112.56836 L 92.007812 118.85156 L 103.96094 118.85156 L 103.96094 114.41211 C 103.96094 107.23998 106.42083 103.41592 115.0957 98.292969 C 123.83887 93.033406 129.37109 85.450606 129.37109 74.726562 C 129.37109 60.655524 117.62328 50 100.41016 50 z M 98.019531 134.42578 C 93.647947 134.42578 90.232422 137.773 90.232422 142.21289 C 90.232422 146.58448 93.647947 150 98.019531 150 C 102.45943 150 105.80664 146.58448 105.80664 142.21289 C 105.80664 137.773 102.45943 134.42578 98.019531 134.42578 z"/></svg>